<svg xmlns="http://www.w3.org/2000/svg" viewBox="0 0 600 167"><defs><style>.cls-1{font-size:24px;fill:#3f5765;font-family:JosefinSans-Regular, Josefin Sans;}.cls-2{fill:#e45e2c;}.cls-3{fill:#efefef;}</style></defs><title>Element 5</title><g id="Ebene_2" data-name="Ebene 2"><g id="Ebene_2-2" data-name="Ebene 2"><rect width="600" height="167"/><text class="cls-1" transform="translate(325.2 132.09)">C O D E / D E S I G N </text><rect class="cls-2" x="72.97" y="29.9" width="5.9" height="43.79" transform="translate(82.82 -39.85) rotate(60)"/><path class="cls-2" d="M76.91,26,32.2,52,76.91,77.85,121.61,52l-20.26-11.8-6.24,0V36.6ZM45,51.51C50.42,48.78,72,36.81,76.91,33.87l16.75,8.74L109,51.51,77,70Z"/><path class="cls-2" d="M121.68,79.08v-3l-5.84,3.63,0,0L77,101.9l-.08,0L39,80.7V67L77,88.33l.08,0,6.77-4v0l37.84-21.91,0-7.55v-.5h-.1l-44.53,26-.29-.17h0L39,58.5l-.62-.36,0,0-6.23-3.6-.09.05,0,0v0L32,63l0,0h0l0,0,.09,21.7,44.65,25.1v.06l0,0L77,110l.07,0,6.27-3.73,31.46-18c0,4.76,0,9.53-.05,14.28L77,124l-.08,0L38.76,102.69l0,0L32,99v7.32l.19.11-.07,0,44.29,26.08.85-.52.06,0,.39-.24h0L80.8,130l.38-.22,40.46-23.14v-.15l0,0V84.25h0Z"/><path class="cls-3" d="M161.82,83.16a11.5,11.5,0,0,1,2.59,7.46A13.5,13.5,0,0,1,162,98.86a14.16,14.16,0,0,1-6.33,4.82,23.13,23.13,0,0,1-8.61,1.55H131.58v-52h13.47q8,0,12.38,3.27t4.39,9.83A13.67,13.67,0,0,1,160,73.44a12.68,12.68,0,0,1-5.22,4.79A16.56,16.56,0,0,1,161.82,83.16Zm-23.25-7.23h7.92a7.72,7.72,0,0,0,6.08-2.31,8.51,8.51,0,0,0,2.05-5.9c0-2.64-.81-4.61-2.45-5.9a10.71,10.71,0,0,0-6.84-2h-6.76ZM154.26,96.7a6.85,6.85,0,0,0,3-6,6.56,6.56,0,0,0-3.2-6,14.63,14.63,0,0,0-7.74-1.94h-7.7v16h8.2A12.8,12.8,0,0,0,154.26,96.7Z"/><path class="cls-3" d="M183.13,53.18V98.46h26.5v6.77H176.15v-52Z"/><path class="cls-3" d="M252.25,53.18l-23,54.5-23-54.5L244,53,229.57,90.69,244,53Z"/><path class="cls-3" d="M291.1,104.4a24.26,24.26,0,0,1-8.39,1.41,27.59,27.59,0,0,1-14.08-3.53,24.47,24.47,0,0,1-9.36-9.5A27,27,0,0,1,256,79.6a28.74,28.74,0,0,1,3.31-13.86,24.58,24.58,0,0,1,9.18-9.65,25.45,25.45,0,0,1,13.28-3.49A28.19,28.19,0,0,1,290,53.75a28.64,28.64,0,0,1,6.84,3L294,63.33q-7.81-5.28-15.75-3.65a16.67,16.67,0,0,0-4.37,1.57,19.65,19.65,0,0,0-8.06,8,20.13,20.13,0,0,0-2.56,10,21.81,21.81,0,0,0,2.34,10.15,17.1,17.1,0,0,0,6.7,7.09,20.81,20.81,0,0,0,22.21-1.4l3,6.26A30.57,30.57,0,0,1,291.1,104.4Z"/><path class="cls-3" d="M316.12,76.72l.86-1.37,21.31-22.17h9L325.76,75.5l22.76,29.73h-8.86L320.65,80l-4.39,4.25.07,21H309.2v-52h7.13V74.13Z"/><path class="cls-3" d="M379.12,60a21,21,0,0,0-6-.94A10.78,10.78,0,0,0,366.41,61a6.47,6.47,0,0,0,.43,10.51,37.85,37.85,0,0,0,8.32,4.07A37.17,37.17,0,0,1,382,78.7a14,14,0,0,1,4.61,4.68A14.33,14.33,0,0,1,388.4,91a14.14,14.14,0,0,1-2.08,7.56,14.51,14.51,0,0,1-5.94,5.32,19.78,19.78,0,0,1-9,2,28.21,28.21,0,0,1-9.29-1.55,31.83,31.83,0,0,1-7.85-3.92l3.1-5.55a24.88,24.88,0,0,0,6.41,3.42,19.85,19.85,0,0,0,7,1.41A12.55,12.55,0,0,0,378,97.46a7.28,7.28,0,0,0,3.13-6.41,7,7,0,0,0-2.63-5.73,28.59,28.59,0,0,0-7.38-4,61.64,61.64,0,0,1-7.3-3.24,15.44,15.44,0,0,1-5-4.36,11.23,11.23,0,0,1-2.09-7,12.56,12.56,0,0,1,4.29-9.9,17,17,0,0,1,11.12-4,30.65,30.65,0,0,1,15.63,4.17l-2.67,5.4A31.41,31.41,0,0,0,379.12,60Z"/><path class="cls-3" d="M451.83,51.52v53.71h-6.91V71.54L425.77,98.68h-.14l-18.8-26.21v32.76h-6.76V51.52h.07l25.63,36.29,26-36.29Z"/><path class="cls-3" d="M473.79,53.18v52.05h-7v-52Z"/><path class="cls-3" d="M519.51,53.18v6.69h-14v45.36h-7V59.87H485V53.18Z"/><path class="cls-3" d="M571.93,105.23h-7V82.41H537.66v22.82h-7v-52h7V75.71h27.28V53.18h7Z"/></g></g></svg>