<?xml version="1.0" encoding="utf-8"?>
<!-- Generator: Adobe Illustrator 23.0.3, SVG Export Plug-In . SVG Version: 6.00 Build 0)  -->
<svg version="1.1" id="Capa_1" xmlns="http://www.w3.org/2000/svg" xmlns:xlink="http://www.w3.org/1999/xlink" x="0px" y="0px"
	 viewBox="0 0 296.8 186.2" style="enable-background:new 0 0 296.8 186.2;" xml:space="preserve">
<g>
	<path fill="#4C4C4C" class="st0" d="M143,77.6c0-17,13.5-30.7,30.5-30.7c17,0,30.5,13.8,30.5,30.7V108h53c-5.6-30-14.5-72-17.6-83.6
		C235.7,10.4,223.3,0,208.2,0H32.5C14.7,0,0,14.2,0,31.9V108h143V77.6z M48,84V47h66v37H48z"/>
	<path fill="#4C4C4C" class="st0" d="M81.1,154.8c-8.7,0-15.7,7-15.7,15.7c0,8.7,7,15.7,15.7,15.7c8.7,0,15.7-7,15.7-15.7
		C96.8,161.8,89.8,154.8,81.1,154.8z"/>
	<path fill="#4C4C4C" class="st0" d="M289,155h-31.7c1.1-2,2-3.8,2.7-5.8c1.2-3.4,1.8-5.4,1.8-10.4c-0.1-2.9-0.9-8.7-2-14.7H204v31h-61v-31H0v14.4
		C0,156.1,14.7,171,32.5,171h15.7c0-18,14.7-32.9,32.9-32.9s32.9,14.9,32.9,32.9H269v7.4c0,4.3,3.2,7.9,7.5,7.9
		c4.3,0,7.5-3.5,7.5-7.9V171h5c4.3,0,7.9-3.7,7.9-8C296.8,158.7,293.3,155,289,155z"/>
</g>
</svg>
