<?xml version="1.0" encoding="utf-8"?>
<!-- Generator: Adobe Illustrator 23.0.3, SVG Export Plug-In . SVG Version: 6.00 Build 0)  -->
<svg version="1.1" id="Ebene_1" xmlns="http://www.w3.org/2000/svg" xmlns:xlink="http://www.w3.org/1999/xlink" x="0px" y="0px"
	 viewBox="0 0 512 512" style="enable-background:new 0 0 512 512;" xml:space="preserve">
<path fill="#4C4C4C" class="st0" d="M272,256v76h30v-76c0-8.3-6.7-15-15-15S272,247.7,272,256z"/>
<path fill="#4C4C4C" class="st0" d="M392,332V151H182v181h60v-76c0-24.8,20.2-45,45-45s45,20.2,45,45v76H392z"/>
<path fill="#4C4C4C" class="st0" d="M287,0L122,121h330L287,0z"/>
<path fill="#4C4C4C" class="st0" d="M107,452c25.1-31.3,26.7-41,45-51.6v-66.7c-53.3,9.2-65.9,50.9-94,82.2c-13.9,18.6-35.1,30.9-58,34.7v60.5
	C41.6,507.1,81.9,485.5,107,452z"/>
<path fill="#4C4C4C" class="st0" d="M182,362v150h30v-60h150v60h30v-38.8l38.8,38.8H512v-51.2L413.2,362H182z M362,422H212v-30h150V422z M452,443.2
	l30,30v8.8h-30V443.2z M422,460.8l-30-30v-47.6l30,30V460.8z"/>
</svg>
